HIERARCHY
ROOT Root
{
	OFFSET 0.00000 0.00000 0.00000
	CHANNELS 6 Xposition Yposition Zposition Zrotation Xrotation Yrotation
	JOINT Hip
	{
		OFFSET 0 0 0	
		CHANNELS 3 Zrotation Xrotation Yrotation
		JOINT Tummy
		{
			OFFSET 0 0.04 0	
			CHANNELS 3 Zrotation Xrotation Yrotation
			JOINT ChestBottom
			{
				OFFSET 0 0.194 0	
				CHANNELS 3 Zrotation Xrotation Yrotation
				JOINT ChestTop
				{
					OFFSET 0 0.166 0	
					CHANNELS 3 Zrotation Xrotation Yrotation
					JOINT LeftCollar
					{
						OFFSET 0 0.1 0	
						CHANNELS 3 Zrotation Xrotation Yrotation
						JOINT LeftUpperArm
						{
							OFFSET 0.156 -0.02 0.03	
							CHANNELS 3 Zrotation Xrotation Yrotation
							JOINT LeftForeArm
							{
								OFFSET 0.035 -0.27 -0.01	
								CHANNELS 3 Zrotation Xrotation Yrotation
								JOINT LeftHand
								{
									OFFSET 0.01 -0.27 0.01	
									CHANNELS 3 Zrotation Xrotation Yrotation
									End Site
									{
										OFFSET 0 -0.15 0
									}
								}
							}
						}
					}
					JOINT RightCollar
					{
						OFFSET 0 0.1 0	
						CHANNELS 3 Zrotation Xrotation Yrotation
						JOINT RightUpperArm
						{
							OFFSET -0.156 -0.02 0.03	
							CHANNELS 3 Zrotation Xrotation Yrotation
							JOINT RightForeArm
							{
								OFFSET -0.035 -0.27 -0.01	
								CHANNELS 3 Zrotation Xrotation Yrotation
								JOINT RightHand
								{
									OFFSET -0.01 -0.27 0.01	
									CHANNELS 3 Zrotation Xrotation Yrotation
									End Site
									{
										OFFSET 0 -0.15 0
									}
								}
							}
						}
					}
					JOINT Neck
					{
						OFFSET 0 0.1 0	
						CHANNELS 3 Zrotation Xrotation Yrotation
						JOINT Head
						{
							OFFSET 0 0.127 0.03	
							CHANNELS 3 Zrotation Xrotation Yrotation
							End Site
							{
								OFFSET 0 0.127 0.03
							}
						}
					}
				}
			}
		}
	}
	JOINT LeftHip
	{
		OFFSET 0 0 0	
		CHANNELS 3 Zrotation Xrotation Yrotation
		JOINT LeftThigh
		{
			OFFSET 0.088 -0.06 0	
			CHANNELS 3 Zrotation Xrotation Yrotation
			JOINT LeftLowerLeg
			{
				OFFSET 0 -0.39 0.02	
				CHANNELS 3 Zrotation Xrotation Yrotation
				JOINT LeftFootTop
				{
					OFFSET 0 -0.43 -0.02	
					CHANNELS 3 Zrotation Xrotation Yrotation
					JOINT LeftFootFront
					{
						OFFSET 0 -0.07 0.085	
						CHANNELS 3 Zrotation Xrotation Yrotation
						End Site
						{
							OFFSET 0 -0.005 0.09
						}
					}
				}
				JOINT LeftHeel
				{
					OFFSET 0 -0.43 -0.02	
					CHANNELS 3 Zrotation Xrotation Yrotation
					End Site
					{
						OFFSET 0 -0.075 -0.05
					}
				}
			}
		}
	}
	JOINT RightHip
	{
		OFFSET 0 0 0	
		CHANNELS 3 Zrotation Xrotation Yrotation
		JOINT RightThigh
		{
			OFFSET -0.088 -0.06 0	
			CHANNELS 3 Zrotation Xrotation Yrotation
			JOINT RightLowerLeg
			{
				OFFSET 0 -0.39 0.02	
				CHANNELS 3 Zrotation Xrotation Yrotation
				JOINT RightFootTop
				{
					OFFSET 0 -0.43 -0.02	
					CHANNELS 3 Zrotation Xrotation Yrotation
					JOINT RightFootFront
					{
						OFFSET 0 -0.07 0.085	
						CHANNELS 3 Zrotation Xrotation Yrotation
						End Site
						{
							OFFSET 0 -0.005 0.09
						}
					}
				}
				JOINT RightHeel
				{
					OFFSET 0 -0.43 -0.02	
					CHANNELS 3 Zrotation Xrotation Yrotation
					End Site
					{
						OFFSET 0 -0.075 -0.05
					}
				}
			}
		}
	}
}
MOTION
Frames: 27
Frame Time: 0.05
0 0.955 0 -0 0 -0 -0 0 -0 -0 0 -0 -1.9684 9.2919 -21.162 -0 0 -0 -0 0 -0 27.07 -11.441 10.376 -156.03 -76.722 -168.61 -0 0 -0 -0 0 -0 -34.643 -44.571 -36.742 145.97 -23.389 32.397 -0 0 -0 0.93051 -22.402 -5.2136 0.93051 -22.402 -5.2136 -0 0 -0 -0 0 -0 -0 0 -0 -0 0 -0 -0 0 -0 -0 0 -0 -0 0 -0 -0 0 -0 -0 0 -0 -0 0 -0 -0 0 -0 -0 0 -0 
0 0.955 0 -0 0 -0 -0 0 -0 -0 0 -0 -1.729 9.2907 -21.326 -0 0 -0 -0 0 -0 26.956 -11.408 10.627 -155.89 -76.677 -168.5 -0 0 -0 -0 0 -0 -33.331 -44.208 -36.091 146.75 -22.522 32.377 -0 0 -0 0.954 -22.29 -4.7674 0.95399 -22.29 -4.7674 -0 0 -0 -0 0 -0 -0 0 -0 -0 0 -0 -0 0 -0 -0 0 -0 -0 0 -0 -0 0 -0 -0 0 -0 -0 0 -0 -0 0 -0 -0 0 -0 
0 0.955 0 -0 0 -0 -0 0 -0 -0 0 -0 -1.3292 9.2821 -21.556 -0 0 -0 -0 0 -0 26.783 -11.396 10.871 -156.22 -76.682 -168.99 -0 0 -0 -0 0 -0 -31.509 -44.105 -34.623 147.14 -21.664 32.407 -0 0 -0 1.0216 -22.235 -3.9988 1.0217 -22.235 -3.9988 -0 0 -0 -0 0 -0 -0 0 -0 -0 0 -0 -0 0 -0 -0 0 -0 -0 0 -0 -0 0 -0 -0 0 -0 -0 0 -0 -0 0 -0 -0 0 -0 
0 0.955 0 -0 0 -0 -0 0 -0 -0 0 -0 -0.66814 10.177 -21.717 -0 0 -0 -0 0 -0 26.863 -12.263 11.621 -156.29 -76.607 -169 -0 0 -0 -0 0 -0 -30.116 -44.95 -33.717 147.38 -21.064 32.548 -0 0 -0 1.1841 -22.66 -3.0924 1.1841 -22.66 -3.0924 -0 0 -0 -0 0 -0 -0 0 -0 -0 0 -0 -0 0 -0 -0 0 -0 -0 0 -0 -0 0 -0 -0 0 -0 -0 0 -0 -0 0 -0 -0 0 -0 
0 0.955 0 -0 0 -0 -0 0 -0 -0 0 -0 -0.24902 10.35 -21.749 -0 0 -0 -0 0 -0 26.725 -12.466 12.088 -155.8 -76.515 -168.44 -0 0 -0 -0 0 -0 -27.64 -45.346 -31.456 147.24 -20.637 33.52 -0 0 -0 1.3546 -22.684 -2.1234 1.3546 -22.684 -2.1234 -0 0 -0 -0 0 -0 -0 0 -0 -0 0 -0 -0 0 -0 -0 0 -0 -0 0 -0 -0 0 -0 -0 0 -0 -0 0 -0 -0 0 -0 -0 0 -0 
0 0.955 0 -0 0 -0 -0 0 -0 -0 0 -0 0.42239 10.775 -21.642 -0 0 -0 -0 0 -0 26.288 -13.161 12.724 -153.53 -76.639 -166.29 -0 0 -0 -0 0 -0 -25.461 -46.04 -29.006 147.26 -20.545 35.698 -0 0 -0 1.4513 -22.806 -1.1575 1.4513 -22.806 -1.1575 -0 0 -0 -0 0 -0 -0 0 -0 -0 0 -0 -0 0 -0 -0 0 -0 -0 0 -0 -0 0 -0 -0 0 -0 -0 0 -0 -0 0 -0 -0 0 -0 
0 0.955 0 -0 0 -0 -0 0 -0 -0 0 -0 0.68647 10.782 -21.208 -0 0 -0 -0 0 -0 26.111 -14.134 14.085 -145.73 -76.932 -157.39 -0 0 -0 -0 0 -0 -23.543 -45.766 -27.01 147.6 -20.081 37.603 -0 0 -0 1.6704 -22.657 -0.40528 1.6704 -22.657 -0.40529 -0 0 -0 -0 0 -0 -0 0 -0 -0 0 -0 -0 0 -0 -0 0 -0 -0 0 -0 -0 0 -0 -0 0 -0 -0 0 -0 -0 0 -0 -0 0 -0 
0 0.955 0 -0 0 -0 -0 0 -0 -0 0 -0 0.76532 11.23 -20.753 -0 0 -0 -0 0 -0 25.842 -15.332 15.62 -137.82 -76.757 -143.65 -0 0 -0 -0 0 -0 -21.897 -45.668 -25.855 147.84 -19.179 38.642 -0 0 -0 2.1552 -22.735 0.24788 2.1552 -22.735 0.24787 -0 0 -0 -0 0 -0 -0 0 -0 -0 0 -0 -0 0 -0 -0 0 -0 -0 0 -0 -0 0 -0 -0 0 -0 -0 0 -0 -0 0 -0 -0 0 -0 
0 0.955 0 -0 0 -0 -0 0 -0 -0 0 -0 1.0367 11.438 -20.412 -0 0 -0 -0 0 -0 25.413 -17.237 16.434 -131.19 -76.088 -123.93 -0 0 -0 -0 0 -0 -20.645 -45.355 -24.422 148.02 -18.012 39.308 -0 0 -0 2.4765 -22.683 0.93882 2.4765 -22.683 0.93882 -0 0 -0 -0 0 -0 -0 0 -0 -0 0 -0 -0 0 -0 -0 0 -0 -0 0 -0 -0 0 -0 -0 0 -0 -0 0 -0 -0 0 -0 -0 0 -0 
0 0.955 0 -0 0 -0 -0 0 -0 -0 0 -0 1.6614 11.026 -20.353 -0 0 -0 -0 0 -0 24.546 -20.741 18.222 -122.06 -73.474 -99.478 -0 0 -0 -0 0 -0 -19.997 -44.642 -22.046 148.48 -16.864 39.867 -0 0 -0 2.4474 -22.224 1.7792 2.4474 -22.224 1.7792 -0 0 -0 -0 0 -0 -0 0 -0 -0 0 -0 -0 0 -0 -0 0 -0 -0 0 -0 -0 0 -0 -0 0 -0 -0 0 -0 -0 0 -0 -0 0 -0 
0 0.955 0 -0 0 -0 -0 0 -0 -0 0 -0 2.0417 10.726 -20.51 -0 0 -0 -0 0 -0 23.694 -24.961 19.081 -119.32 -70.523 -83.708 -0 0 -0 -0 0 -0 -18.489 -44.277 -18.918 148.51 -15.808 40.032 -0 0 -0 2.4069 -21.683 2.7209 2.4069 -21.683 2.7209 -0 0 -0 -0 0 -0 -0 0 -0 -0 0 -0 -0 0 -0 -0 0 -0 -0 0 -0 -0 0 -0 -0 0 -0 -0 0 -0 -0 0 -0 -0 0 -0 
0 0.955 0 -0 0 -0 -0 0 -0 -0 0 -0 2.3021 11.076 -20.824 -0 0 -0 -0 0 -0 22.989 -29.715 18.25 -121.36 -69.032 -75.854 -0 0 -0 -0 0 -0 -16.657 -44.876 -15.962 148.21 -15.382 40.118 -0 0 -0 2.532 -21.501 3.6422 2.532 -21.501 3.6422 -0 0 -0 -0 0 -0 -0 0 -0 -0 0 -0 -0 0 -0 -0 0 -0 -0 0 -0 -0 0 -0 -0 0 -0 -0 0 -0 -0 0 -0 -0 0 -0 
0 0.955 0 -0 0 -0 -0 0 -0 -0 0 -0 2.2251 11.115 -20.968 -0 0 -0 -0 0 -0 22.015 -33.392 17.192 -125.16 -68.082 -75.401 -0 0 -0 -0 0 -0 -14.513 -44.955 -12.866 147.76 -15.451 40.662 -0 0 -0 2.7855 -21.233 4.366 2.7855 -21.233 4.366 -0 0 -0 -0 0 -0 -0 0 -0 -0 0 -0 -0 0 -0 -0 0 -0 -0 0 -0 -0 0 -0 -0 0 -0 -0 0 -0 -0 0 -0 -0 0 -0 
0 0.955 0 -0 0 -0 -0 0 -0 -0 0 -0 1.8297 10.888 -21.29 -0 0 -0 -0 0 -0 21.341 -34.857 17.792 -130.13 -66.56 -81.229 -0 0 -0 -0 0 -0 -11.977 -44.9 -9.8539 147.38 -15.836 41.147 -0 0 -0 3.2968 -20.848 5.1972 3.2968 -20.848 5.1972 -0 0 -0 -0 0 -0 -0 0 -0 -0 0 -0 -0 0 -0 -0 0 -0 -0 0 -0 -0 0 -0 -0 0 -0 -0 0 -0 -0 0 -0 -0 0 -0 
0 0.955 0 -0 0 -0 -0 0 -0 -0 0 -0 1.4745 10.893 -21.342 -0 0 -0 -0 0 -0 20.984 -35.875 18.72 -134.69 -65.37 -88.532 -0 0 -0 -0 0 -0 -9.6702 -45.351 -7.5954 147.12 -16.535 41.779 -0 0 -0 3.7152 -20.634 5.9126 3.7152 -20.634 5.9126 -0 0 -0 -0 0 -0 -0 0 -0 -0 0 -0 -0 0 -0 -0 0 -0 -0 0 -0 -0 0 -0 -0 0 -0 -0 0 -0 -0 0 -0 -0 0 -0 
0 0.955 0 -0 0 -0 -0 0 -0 -0 0 -0 1.4977 11.234 -21.39 -0 0 -0 -0 0 -0 20.532 -36.722 19.207 -138.95 -64.474 -95.318 -0 0 -0 -0 0 -0 -8.1946 -46.184 -6.1778 147.23 -16.998 42.445 -0 0 -0 4.035 -20.757 6.5723 4.035 -20.757 6.5723 -0 0 -0 -0 0 -0 -0 0 -0 -0 0 -0 -0 0 -0 -0 0 -0 -0 0 -0 -0 0 -0 -0 0 -0 -0 0 -0 -0 0 -0 -0 0 -0 
0 0.955 0 -0 0 -0 -0 0 -0 -0 0 -0 1.2957 11.778 -21.214 -0 0 -0 -0 0 -0 20.908 -37.64 18.876 -142.86 -64.14 -100.82 -0 0 -0 -0 0 -0 -7.1894 -47.142 -5.2255 147.73 -17.447 43.007 -0 0 -0 4.4184 -21.039 7.0118 4.4184 -21.039 7.0118 -0 0 -0 -0 0 -0 -0 0 -0 -0 0 -0 -0 0 -0 -0 0 -0 -0 0 -0 -0 0 -0 -0 0 -0 -0 0 -0 -0 0 -0 -0 0 -0 
0 0.955 0 -0 0 -0 -0 0 -0 -0 0 -0 1.2473 11.966 -21.136 -0 0 -0 -0 0 -0 21.545 -38.192 18.571 -146.52 -64.047 -106.53 -0 0 -0 -0 0 -0 -6.2842 -47.934 -4.0143 148.35 -17.982 43.719 -0 0 -0 4.6562 -21.116 7.3503 4.6562 -21.116 7.3503 -0 0 -0 -0 0 -0 -0 0 -0 -0 0 -0 -0 0 -0 -0 0 -0 -0 0 -0 -0 0 -0 -0 0 -0 -0 0 -0 -0 0 -0 -0 0 -0 
0 0.955 0 -0 0 -0 -0 0 -0 -0 0 -0 1.4694 12.113 -21.126 -0 0 -0 -0 0 -0 21.997 -38.485 18.548 -150.45 -63.863 -113.46 -0 0 -0 -0 0 -0 -5.8356 -49.13 -3.505 149.09 -18.413 44.062 -0 0 -0 4.7563 -21.107 7.5891 4.7563 -21.107 7.5891 -0 0 -0 -0 0 -0 -0 0 -0 -0 0 -0 -0 0 -0 -0 0 -0 -0 0 -0 -0 0 -0 -0 0 -0 -0 0 -0 -0 0 -0 -0 0 -0 
0 0.955 0 -0 0 -0 -0 0 -0 -0 0 -0 1.5589 12.214 -21.156 -0 0 -0 -0 0 -0 22.275 -38.485 18.876 -153.49 -63.366 -119.68 -0 0 -0 -0 0 -0 -5.3269 -50.199 -2.987 150.04 -18.747 44.724 -0 0 -0 4.8247 -20.999 7.8097 4.8247 -20.999 7.8097 -0 0 -0 -0 0 -0 -0 0 -0 -0 0 -0 -0 0 -0 -0 0 -0 -0 0 -0 -0 0 -0 -0 0 -0 -0 0 -0 -0 0 -0 -0 0 -0 
0 0.955 0 -0 0 -0 -0 0 -0 -0 0 -0 1.6617 12.253 -21.158 -0 0 -0 -0 0 -0 22.523 -38.308 19.685 -155.68 -62.527 -124.53 -0 0 -0 -0 0 -0 -4.8218 -51.086 -2.126 150.88 -19.184 45.38 -0 0 -0 4.8034 -20.921 7.9602 4.8034 -20.921 7.9602 -0 0 -0 -0 0 -0 -0 0 -0 -0 0 -0 -0 0 -0 -0 0 -0 -0 0 -0 -0 0 -0 -0 0 -0 -0 0 -0 -0 0 -0 -0 0 -0 
0 0.955 0 -0 0 -0 -0 0 -0 -0 0 -0 1.7377 12.198 -21.075 -0 0 -0 -0 0 -0 22.829 -38.21 20.564 -156.96 -61.663 -127.21 -0 0 -0 -0 0 -0 -4.6281 -51.617 -1.8307 151.61 -19.458 45.806 -0 0 -0 4.7705 -20.854 8.0731 4.7705 -20.854 8.0731 -0 0 -0 -0 0 -0 -0 0 -0 -0 0 -0 -0 0 -0 -0 0 -0 -0 0 -0 -0 0 -0 -0 0 -0 -0 0 -0 -0 0 -0 -0 0 -0 
0 0.955 0 -0 0 -0 -0 0 -0 -0 0 -0 1.709 12.265 -20.799 -0 0 -0 -0 0 -0 23.581 -38.494 21.19 -158.14 -61.2 -128.84 -0 0 -0 -0 0 -0 -4.5926 -52.085 -2.181 152.26 -19.636 46.15 -0 0 -0 4.8586 -20.855 8.1089 4.8586 -20.855 8.1089 -0 0 -0 -0 0 -0 -0 0 -0 -0 0 -0 -0 0 -0 -0 0 -0 -0 0 -0 -0 0 -0 -0 0 -0 -0 0 -0 -0 0 -0 -0 0 -0 
0 0.955 0 -0 0 -0 -0 0 -0 -0 0 -0 1.7274 12.321 -20.543 -0 0 -0 -0 0 -0 24.409 -38.761 21.827 -159 -60.827 -129.94 -0 0 -0 -0 0 -0 -4.6143 -52.562 -2.4004 152.78 -19.796 46.459 -0 0 -0 4.9432 -20.953 8.0553 4.9432 -20.953 8.0553 -0 0 -0 -0 0 -0 -0 0 -0 -0 0 -0 -0 0 -0 -0 0 -0 -0 0 -0 -0 0 -0 -0 0 -0 -0 0 -0 -0 0 -0 -0 0 -0 
0 0.955 0 -0 0 -0 -0 0 -0 -0 0 -0 1.7112 12.46 -20.333 -0 0 -0 -0 0 -0 25.075 -39.016 22.211 -159.52 -60.534 -130.59 -0 0 -0 -0 0 -0 -4.6391 -53.058 -2.5622 153.23 -19.919 46.649 -0 0 -0 5.0523 -21.141 7.9203 5.0523 -21.141 7.9203 -0 0 -0 -0 0 -0 -0 0 -0 -0 0 -0 -0 0 -0 -0 0 -0 -0 0 -0 -0 0 -0 -0 0 -0 -0 0 -0 -0 0 -0 -0 0 -0 
0 0.955 0 -0 0 -0 -0 0 -0 -0 0 -0 1.6411 12.756 -20.24 -0 0 -0 -0 0 -0 25.964 -39.351 22.832 -159.96 -60.36 -131.14 -0 0 -0 -0 0 -0 -4.5609 -53.604 -2.6419 153.56 -19.954 46.674 -0 0 -0 5.2599 -21.365 7.821 5.2599 -21.365 7.821 -0 0 -0 -0 0 -0 -0 0 -0 -0 0 -0 -0 0 -0 -0 0 -0 -0 0 -0 -0 0 -0 -0 0 -0 -0 0 -0 -0 0 -0 -0 0 -0 
0 0.955 0 -0 0 -0 -0 0 -0 -0 0 -0 1.4992 13.035 -20.067 -0 0 -0 -0 0 -0 26.696 -39.734 23.426 -160.04 -60.241 -131.38 -0 0 -0 -0 0 -0 -4.5229 -54.141 -2.8775 153.73 -20.126 46.767 -0 0 -0 5.5258 -21.47 7.7142 5.5258 -21.47 7.7142 -0 0 -0 -0 0 -0 -0 0 -0 -0 0 -0 -0 0 -0 -0 0 -0 -0 0 -0 -0 0 -0 -0 0 -0 -0 0 -0 -0 0 -0 -0 0 -0 
